<?xml version="1.0" standalone="no"?>
<!DOCTYPE svg PUBLIC "-//W3C//DTD SVG 20010904//EN"
 "http://www.w3.org/TR/2001/REC-SVG-20010904/DTD/svg10.dtd">
<svg version="1.0" xmlns="http://www.w3.org/2000/svg"
 width="609.000000pt" height="299.000000pt" viewBox="0 0 609.000000 299.000000"
 preserveAspectRatio="xMidYMid meet">

<g transform="translate(0.000000,299.000000) scale(0.100000,-0.100000)"
fill="#000000" stroke="none">
<path d="M3417 2509 c-157 -23 -256 -118 -257 -247 0 -138 81 -210 311 -272
126 -35 142 -41 163 -72 24 -34 19 -66 -14 -100 -29 -29 -34 -30 -95 -26 -55
3 -69 8 -95 33 -17 16 -36 47 -42 69 l-12 39 -125 -7 c-69 -4 -127 -8 -129
-11 -2 -2 5 -35 17 -73 15 -51 33 -83 66 -119 55 -62 113 -88 228 -103 155
-21 302 13 389 89 20 17 38 31 41 31 2 0 8 -17 12 -37 11 -61 61 -148 115
-201 54 -54 152 -107 215 -117 80 -13 79 -13 50 -51 -136 -178 -121 -487 31
-638 97 -97 270 -138 448 -105 115 21 205 81 267 178 l28 44 3 -109 3 -109
343 -3 342 -2 0 110 0 110 -210 0 -210 0 0 330 0 331 -132 -3 -133 -3 -5 -110
c-4 -97 -6 -106 -17 -82 -37 81 -170 178 -266 193 -20 4 -40 10 -42 14 -3 4
13 20 35 35 54 37 131 121 175 189 119 186 127 428 19 573 -95 127 -216 186
-384 186 -264 0 -500 -147 -625 -388 l-32 -61 -19 34 c-36 66 -125 112 -309
157 -131 32 -155 45 -155 85 0 44 36 64 105 58 62 -5 89 -24 107 -76 l13 -34
65 6 c36 3 91 6 123 6 56 0 57 1 57 28 0 38 -42 122 -76 154 -75 70 -226 101
-387 77z m1264 -83 c187 -57 309 -215 309 -400 0 -325 -313 -625 -655 -627
-50 -1 -111 4 -135 11 -188 51 -321 220 -320 408 1 116 65 281 145 370 55 61
195 168 255 195 125 55 298 74 401 43z m21 -1172 c67 -34 92 -105 86 -249 -5
-114 -18 -149 -74 -191 -30 -23 -46 -28 -98 -28 -80 0 -122 23 -154 85 -47 92
-39 276 15 339 54 65 147 83 225 44z"/>
<path d="M4478 2210 c-53 -28 -107 -87 -114 -125 -8 -46 18 -93 63 -112 34
-13 41 -13 120 12 89 28 113 24 113 -16 0 -39 -57 -57 -110 -35 -9 3 -31 -8
-55 -29 l-40 -35 25 -20 c60 -47 143 -31 226 44 43 38 47 47 52 97 4 48 1 59
-23 87 -37 44 -80 50 -158 22 -93 -33 -106 -35 -113 -16 -13 35 62 77 81 46 7
-12 26 -3 70 35 l30 26 -24 19 c-30 26 -94 25 -143 0z"/>
<path d="M4213 2019 c-24 -17 -43 -34 -43 -38 0 -5 30 -51 66 -102 86 -122 92
-135 70 -157 -16 -16 -19 -16 -45 -1 -28 16 -30 16 -65 -13 -44 -36 -45 -53
-3 -78 103 -63 262 49 233 165 -6 25 -124 206 -155 237 -15 15 -19 15 -58 -13z"/>
<path d="M410 2066 l0 -436 135 0 135 0 0 175 0 175 25 0 c38 0 70 -19 91 -53
10 -17 51 -90 89 -162 l70 -130 153 -3 c83 -1 152 0 152 4 0 4 -32 67 -72 142
-76 145 -120 202 -169 223 l-32 13 47 13 c55 16 118 74 142 130 22 53 21 149
-3 204 -23 53 -78 103 -130 120 -25 9 -137 14 -335 16 l-298 4 0 -435z m485
229 c27 -26 33 -72 15 -105 -14 -26 -70 -40 -157 -40 l-73 0 0 85 0 85 95 0
c88 0 98 -2 120 -25z"/>
<path d="M597 1465 c-75 -19 -104 -35 -149 -82 -66 -67 -86 -169 -49 -248 40
-86 118 -133 305 -183 131 -36 160 -55 164 -106 4 -46 -16 -72 -69 -87 -78
-24 -171 26 -185 98 -4 19 -12 36 -18 39 -6 2 -63 0 -126 -4 l-115 -7 2 -41
c2 -53 40 -128 89 -176 56 -56 127 -79 264 -85 180 -8 295 30 365 123 l31 41
38 -44 c77 -89 198 -129 361 -120 126 7 183 27 249 88 58 52 121 161 114 195
-2 13 -32 26 -113 51 -61 18 -111 33 -112 33 -1 0 -8 -18 -14 -39 -27 -89
-105 -142 -188 -126 -105 20 -136 75 -136 245 0 100 3 121 22 157 29 54 74 85
132 90 62 6 128 -28 154 -79 10 -21 23 -38 28 -38 7 0 60 12 206 45 l22 5 -21
51 c-28 66 -98 144 -158 174 -100 51 -283 58 -404 16 -66 -23 -128 -67 -168
-118 l-27 -35 -20 40 c-26 50 -81 97 -140 118 -65 23 -259 28 -334 9z m210
-170 c12 -8 27 -31 34 -50 l13 -36 99 3 99 3 -6 -30 c-4 -16 -9 -46 -12 -67
l-6 -36 -48 24 c-26 13 -92 35 -146 49 -162 42 -172 45 -189 61 -31 32 -10 84
40 97 30 8 97 -2 122 -18z"/>
<path d="M3293 1465 c-107 -30 -191 -89 -245 -174 l-28 -45 0 112 0 113 -132
-3 -133 -3 -3 -152 -3 -153 -144 0 -144 0 -3 153 -3 152 -132 3 -133 3 0 -441
0 -441 133 3 132 3 3 178 2 177 145 0 145 0 2 -177 3 -178 133 -3 132 -3 0
113 0 113 26 -40 c67 -101 140 -153 256 -180 189 -44 402 11 491 128 70 91
105 231 92 361 -18 190 -105 312 -260 367 -78 29 -255 36 -332 14z m200 -200
c92 -18 140 -144 117 -304 -18 -127 -66 -175 -176 -175 -53 0 -68 5 -99 28
-58 45 -75 93 -75 216 0 90 3 112 23 150 25 50 60 79 108 90 32 7 48 6 102 -5z"/>
</g>
</svg>
